<svg id="Слой_1" data-name="Слой 1" xmlns="http://www.w3.org/2000/svg" width="202.59" height="241.88" viewBox="0 0 202.59 241.88">
  <defs>
    <style>
      .cls-1 {
        fill: #20577d;
      }

      .cls-2 {
        fill: #fff;
      }
    </style>
  </defs>
  <title>footer</title>
  <g>
    <g>
      <path class="cls-1" d="M45.92,2.49" transform="translate(-6.66 -2.14)"/>
      <path class="cls-1" d="M45.92,153" transform="translate(-6.66 -2.14)"/>
      <path class="cls-1" d="M45.92,153" transform="translate(-6.66 -2.14)"/>
      <g>
        <g>
          <path class="cls-2" d="M38.2,213.67V174.21a2,2,0,0,1,1.94-1.94H46a2,2,0,0,1,1.94,1.94v39.46h3.31a1.87,1.87,0,0,1,1.37.57,1.9,1.9,0,0,1,.58,1.37v13a2,2,0,0,1-2,2H45.76a1.9,1.9,0,0,1-1.37-.58,1.87,1.87,0,0,1-.57-1.37v-6H10.12a2,2,0,0,1-1.94-1.95V174.21a1.95,1.95,0,0,1,1.94-1.94H16a1.87,1.87,0,0,1,1.37.57,1.9,1.9,0,0,1,.58,1.37v39.46Z" transform="translate(-6.66 -2.14)"/>
          <path class="cls-2" d="M85.22,172.27a2.24,2.24,0,0,1,1.72.61,5.18,5.18,0,0,1,1,1.83l17.64,45.51a1.51,1.51,0,0,1,.07.5,2,2,0,0,1-1.94,1.95H98.54a2.72,2.72,0,0,1-2-.61,3.72,3.72,0,0,1-.79-1.19l-3.1-8H69.88l-3.1,8a3.56,3.56,0,0,1-.79,1.19,2.71,2.71,0,0,1-2,.61H58.79a2,2,0,0,1-1.94-1.95,1.51,1.51,0,0,1,.07-.5l17.64-45.51a5.18,5.18,0,0,1,1-1.83,2.25,2.25,0,0,1,1.73-.61Zm4,31.61-7.92-20.52-7.92,20.52Z" transform="translate(-6.66 -2.14)"/>
          <path class="cls-2" d="M133.38,172.27q8.72,0,13.54,4.1t4.82,12q0,7.92-4.82,12.09t-13.54,4.18H121.86v16.05a2,2,0,0,1-1.94,1.95h-5.83a1.84,1.84,0,0,1-1.37-.58,1.88,1.88,0,0,1-.58-1.37V174.21a1.9,1.9,0,0,1,.58-1.37,1.87,1.87,0,0,1,1.37-.57Zm-11.52,23.4H133a11.75,11.75,0,0,0,6.56-1.62c1.63-1.08,2.44-3,2.44-5.65s-.81-4.55-2.44-5.58a12.11,12.11,0,0,0-6.56-1.55H121.86Z" transform="translate(-6.66 -2.14)"/>
          <path class="cls-2" d="M183.21,198l13.68-23.76c.19-.24.51-.62,1-1.15a2.65,2.65,0,0,1,2.12-.79h4.9a1.95,1.95,0,0,1,1.94,1.94v46.51a2,2,0,0,1-1.94,1.95h-5.83a2,2,0,0,1-2-1.95V192.57l-9.36,16.2a6.07,6.07,0,0,1-1,1.19,2.33,2.33,0,0,1-1.66.61h-3.74a2.3,2.3,0,0,1-1.66-.61,6.15,6.15,0,0,1-1-1.19l-9.36-16.2v28.15a2,2,0,0,1-1.94,1.95h-5.83a2,2,0,0,1-1.95-1.95V174.21a2,2,0,0,1,1.95-1.94h4.89a2.67,2.67,0,0,1,2.13.79l1,1.15Z" transform="translate(-6.66 -2.14)"/>
        </g>
        <g>
          <path class="cls-2" d="M6.74,233.25a.52.52,0,0,1-.08-.24.35.35,0,0,1,.1-.25.33.33,0,0,1,.25-.1H7.7a.62.62,0,0,1,.45.13.8.8,0,0,1,.22.27l2.88,5.55,2.9-5.55a.9.9,0,0,1,.21-.27.63.63,0,0,1,.46-.13h.69a.35.35,0,0,1,.25.1.39.39,0,0,1,.1.25.52.52,0,0,1-.08.24l-3.84,7.36c-.2.38-.42.76-.63,1.15a6.69,6.69,0,0,1-.74,1,3.61,3.61,0,0,1-.91.76,2.22,2.22,0,0,1-1.15.3H7.68a.38.38,0,0,1-.3-.13.39.39,0,0,1-.13-.3v-.58a.44.44,0,0,1,.43-.43h.69a1,1,0,0,0,.59-.18,2.4,2.4,0,0,0,.51-.5,6.55,6.55,0,0,0,.47-.7c.15-.25.3-.52.45-.8Z" transform="translate(-6.66 -2.14)"/>
          <path class="cls-2" d="M22.27,239.43l3.24-6.26a1.23,1.23,0,0,1,.26-.35.6.6,0,0,1,.44-.16h.61a.44.44,0,0,1,.43.43v10.34a.39.39,0,0,1-.13.3.38.38,0,0,1-.3.13h-.66a.38.38,0,0,1-.3-.13.39.39,0,0,1-.13-.3v-7.59l-2.5,4.82A1.28,1.28,0,0,1,23,241a.52.52,0,0,1-.38.13H22a.52.52,0,0,1-.38-.13,1.5,1.5,0,0,1-.28-.38l-2.49-4.82v7.59a.39.39,0,0,1-.13.3.41.41,0,0,1-.3.13h-.66a.38.38,0,0,1-.3-.13.39.39,0,0,1-.13-.3V233.09a.44.44,0,0,1,.43-.43h.61a.6.6,0,0,1,.44.16,1.23,1.23,0,0,1,.26.35Z" transform="translate(-6.66 -2.14)"/>
          <path class="cls-2" d="M38.24,232.66a.42.42,0,0,1,.31.13.41.41,0,0,1,.12.3v10.34a.42.42,0,0,1-.12.3.42.42,0,0,1-.31.13h-.65a.42.42,0,0,1-.31-.13.43.43,0,0,1-.13-.3v-4.51H31.52v4.51a.39.39,0,0,1-.13.3.38.38,0,0,1-.3.13h-.66a.44.44,0,0,1-.3-.12.42.42,0,0,1-.13-.31V233.09a.42.42,0,0,1,.13-.3.41.41,0,0,1,.3-.13h.66a.44.44,0,0,1,.43.43v4.39h5.63v-4.39a.44.44,0,0,1,.44-.43Z" transform="translate(-6.66 -2.14)"/>
          <path class="cls-2" d="M48.26,241.33H42.71l-.84,2.13a.88.88,0,0,1-.17.26.62.62,0,0,1-.45.14h-.59a.33.33,0,0,1-.25-.1.35.35,0,0,1-.1-.25.65.65,0,0,1,.06-.23l3.92-10.09a1.26,1.26,0,0,1,.24-.36.65.65,0,0,1,.48-.17h1a.65.65,0,0,1,.48.17,1.26,1.26,0,0,1,.24.36l3.9,10.09a.53.53,0,0,1,.07.23.36.36,0,0,1-.11.25.33.33,0,0,1-.24.1h-.6a.58.58,0,0,1-.44-.14.76.76,0,0,1-.18-.26Zm-5-1.44H47.7l-2.21-5.71Z" transform="translate(-6.66 -2.14)"/>
          <path class="cls-2" d="M59.54,232.66a.44.44,0,0,1,.43.43v10.34a.39.39,0,0,1-.13.3.38.38,0,0,1-.3.13h-.66a.44.44,0,0,1-.43-.43v-4.08H55.7l-2.32,4.08a1.87,1.87,0,0,1-.22.27.61.61,0,0,1-.47.16H52a.35.35,0,0,1-.25-.1.39.39,0,0,1-.1-.25.45.45,0,0,1,.05-.18l2.41-4.21A3.46,3.46,0,0,1,52.46,238a3.15,3.15,0,0,1-.65-2.07,3.26,3.26,0,0,1,.31-1.5,2.93,2.93,0,0,1,.84-1,3.7,3.7,0,0,1,1.23-.59,5.41,5.41,0,0,1,1.48-.19Zm-1.09,1.44h-2.7a3.22,3.22,0,0,0-1.79.42,1.63,1.63,0,0,0-.63,1.45,1.7,1.7,0,0,0,.63,1.48,3,3,0,0,0,1.79.46h2.7Z" transform="translate(-6.66 -2.14)"/>
          <path class="cls-2" d="M73.46,241.33H67.91l-.84,2.13a.88.88,0,0,1-.17.26.62.62,0,0,1-.45.14h-.59a.33.33,0,0,1-.25-.1.35.35,0,0,1-.1-.25.65.65,0,0,1,.06-.23l3.92-10.09a1.26,1.26,0,0,1,.24-.36.65.65,0,0,1,.48-.17h1a.65.65,0,0,1,.48.17,1.26,1.26,0,0,1,.24.36l3.9,10.09a.53.53,0,0,1,.07.23.36.36,0,0,1-.11.25.33.33,0,0,1-.24.1h-.6a.58.58,0,0,1-.44-.14.76.76,0,0,1-.18-.26Zm-5-1.44H72.9l-2.21-5.71Z" transform="translate(-6.66 -2.14)"/>
          <path class="cls-2" d="M77.94,243.86a.42.42,0,0,1-.31-.13.42.42,0,0,1-.12-.3V233.09a.41.41,0,0,1,.12-.3.42.42,0,0,1,.31-.13h4.29a4,4,0,0,1,1.69.31,3.17,3.17,0,0,1,1.07.77,2.65,2.65,0,0,1,.57,1,3.29,3.29,0,0,1,.17.95,2.45,2.45,0,0,1-.16.93,2.66,2.66,0,0,1-.37.67,2.18,2.18,0,0,1-.43.43l-.3.22a4.13,4.13,0,0,1,1.06,1.1,2.81,2.81,0,0,1,.46,1.59,3.18,3.18,0,0,1-.23,1.18,3.07,3.07,0,0,1-.66,1,3.4,3.4,0,0,1-1.11.75,3.83,3.83,0,0,1-1.53.28ZM79,234.1v3.23h3a2.63,2.63,0,0,0,1.61-.41,1.43,1.43,0,0,0,.54-1.2,1.41,1.41,0,0,0-.54-1.2,2.56,2.56,0,0,0-1.61-.42Zm0,4.67v3.65H82.3a3,3,0,0,0,.94-.14,2,2,0,0,0,.68-.4,1.76,1.76,0,0,0,.41-.58,1.74,1.74,0,0,0,.14-.69,2.1,2.1,0,0,0-.13-.69,1.67,1.67,0,0,0-.4-.59,1.85,1.85,0,0,0-.67-.41,2.82,2.82,0,0,0-1-.15Z" transform="translate(-6.66 -2.14)"/>
          <path class="cls-2" d="M94.91,232.66a.44.44,0,0,1,.44.43v.58a.44.44,0,0,1-.44.43h-3v9.33a.39.39,0,0,1-.13.3.38.38,0,0,1-.3.13h-.66a.44.44,0,0,1-.43-.43V234.1h-3a.44.44,0,0,1-.43-.43v-.58a.44.44,0,0,1,.43-.43Z" transform="translate(-6.66 -2.14)"/>
          <path class="cls-2" d="M96.4,236.83a5.21,5.21,0,0,1,.31-1.68,4,4,0,0,1,2.23-2.31,4.81,4.81,0,0,1,1.88-.34,4.76,4.76,0,0,1,1.87.34,4.05,4.05,0,0,1,1.37.93,3.93,3.93,0,0,1,.86,1.38,5,5,0,0,1,.31,1.68c0,1,0,1.9,0,2.85a5.23,5.23,0,0,1-.33,1.69,4,4,0,0,1-.85,1.39,3.89,3.89,0,0,1-1.37.92,5.29,5.29,0,0,1-3.73,0,4,4,0,0,1-1.37-.92,4.2,4.2,0,0,1-.85-1.39,5.23,5.23,0,0,1-.33-1.69C96.37,238.73,96.37,237.79,96.4,236.83Zm7.31.09a4.26,4.26,0,0,0-.24-1.32,2.51,2.51,0,0,0-.61-.92,2.45,2.45,0,0,0-.9-.56,3.73,3.73,0,0,0-2.29,0,2.54,2.54,0,0,0-1.51,1.48,3.74,3.74,0,0,0-.24,1.32c0,.48,0,.92,0,1.34s0,.86,0,1.34a3.79,3.79,0,0,0,.24,1.32,2.54,2.54,0,0,0,1.51,1.48,3.73,3.73,0,0,0,2.29,0,2.45,2.45,0,0,0,.9-.56,2.51,2.51,0,0,0,.61-.92,4.31,4.31,0,0,0,.24-1.32c0-.48,0-.92,0-1.34S103.73,237.4,103.71,236.92Z" transform="translate(-6.66 -2.14)"/>
          <path class="cls-2" d="M112.54,239.43l3.24-6.26a1.23,1.23,0,0,1,.26-.35.6.6,0,0,1,.44-.16h.61a.44.44,0,0,1,.43.43v10.34a.39.39,0,0,1-.13.3.38.38,0,0,1-.3.13h-.66a.44.44,0,0,1-.43-.43v-7.59l-2.5,4.82a1.28,1.28,0,0,1-.27.38.52.52,0,0,1-.38.13h-.61a.52.52,0,0,1-.38-.13,1.5,1.5,0,0,1-.28-.38l-2.49-4.82v7.59a.44.44,0,0,1-.43.43H108a.38.38,0,0,1-.3-.13.39.39,0,0,1-.13-.3V233.09a.44.44,0,0,1,.43-.43h.61a.6.6,0,0,1,.44.16,1.23,1.23,0,0,1,.26.35Z" transform="translate(-6.66 -2.14)"/>
          <path class="cls-2" d="M127.11,241.33h-5.56l-.83,2.13a.88.88,0,0,1-.17.26.62.62,0,0,1-.45.14h-.59a.33.33,0,0,1-.25-.1.36.36,0,0,1-.11-.25.53.53,0,0,1,.07-.23l3.92-10.09a1.26,1.26,0,0,1,.24-.36.62.62,0,0,1,.48-.17h1a.65.65,0,0,1,.48.17,1.88,1.88,0,0,1,.24.36l3.9,10.09a.71.71,0,0,1,.07.23.36.36,0,0,1-.11.25.33.33,0,0,1-.25.1h-.59a.62.62,0,0,1-.45-.14.88.88,0,0,1-.17-.26Zm-5-1.44h4.44l-2.21-5.71Z" transform="translate(-6.66 -2.14)"/>
          <path class="cls-2" d="M132.07,236.92c0,.48,0,.92,0,1.34s0,.86,0,1.34a3.26,3.26,0,0,0,.8,2.16,2.87,2.87,0,0,0,2.19.82,3.74,3.74,0,0,0,1.29-.19,2.74,2.74,0,0,0,.88-.5,2,2,0,0,0,.52-.69,3.64,3.64,0,0,0,.28-.8.46.46,0,0,1,.16-.26.45.45,0,0,1,.26-.09h.74a.34.34,0,0,1,.24.11.32.32,0,0,1,.11.24,3.34,3.34,0,0,1-.27,1.16,3.94,3.94,0,0,1-.8,1.17,4.07,4.07,0,0,1-1.37.92,5,5,0,0,1-2,.37,4.94,4.94,0,0,1-1.86-.33,4.32,4.32,0,0,1-1.4-.9,4,4,0,0,1-.9-1.37,4.9,4.9,0,0,1-.35-1.74c0-1,0-1.89,0-2.85a4.88,4.88,0,0,1,.35-1.72,3.93,3.93,0,0,1,.9-1.38,4.32,4.32,0,0,1,1.4-.9,4.94,4.94,0,0,1,1.86-.33,5,5,0,0,1,2,.37,4.07,4.07,0,0,1,1.37.92,3.94,3.94,0,0,1,.8,1.17,3.34,3.34,0,0,1,.27,1.16.38.38,0,0,1-.35.35h-.74a.45.45,0,0,1-.26-.09.46.46,0,0,1-.16-.26,3.46,3.46,0,0,0-.28-.8,2,2,0,0,0-.52-.69,2.57,2.57,0,0,0-.88-.5,3.74,3.74,0,0,0-1.29-.19,2.84,2.84,0,0,0-2.19.82A3.26,3.26,0,0,0,132.07,236.92Z" transform="translate(-6.66 -2.14)"/>
          <path class="cls-2" d="M148.56,232.66a.42.42,0,0,1,.31.13.41.41,0,0,1,.12.3v.58a.41.41,0,0,1-.12.3.42.42,0,0,1-.31.13h-3v9.33a.44.44,0,0,1-.43.43h-.66a.38.38,0,0,1-.3-.13.39.39,0,0,1-.13-.3V234.1h-3a.42.42,0,0,1-.31-.13.41.41,0,0,1-.12-.3v-.58a.41.41,0,0,1,.12-.3.42.42,0,0,1,.31-.13Z" transform="translate(-6.66 -2.14)"/>
          <path class="cls-2" d="M157.63,242.42a.44.44,0,0,1,.44.43v.58a.43.43,0,0,1-.13.3.42.42,0,0,1-.31.13h-6.46a.38.38,0,0,1-.3-.13.39.39,0,0,1-.13-.3V233.09a.44.44,0,0,1,.43-.43h6.33a.44.44,0,0,1,.44.43v.58a.44.44,0,0,1-.44.43h-5.24v3.38h4.89a.41.41,0,0,1,.43.43v.57a.45.45,0,0,1-.12.31.46.46,0,0,1-.31.13h-4.89v3.5Z" transform="translate(-6.66 -2.14)"/>
          <path class="cls-2" d="M164.67,232.66a5.4,5.4,0,0,1,1.48.2,3.4,3.4,0,0,1,1.23.62,2.92,2.92,0,0,1,.84,1.05,3.55,3.55,0,0,1,.31,1.52,3.6,3.6,0,0,1-.31,1.53,3.21,3.21,0,0,1-.84,1.08,3.43,3.43,0,0,1-1.23.64,5,5,0,0,1-1.48.21h-2.94v3.92a.44.44,0,0,1-.43.43h-.66a.38.38,0,0,1-.3-.13.39.39,0,0,1-.13-.3V233.09a.44.44,0,0,1,.43-.43Zm-2.94,5.41h2.86a2.85,2.85,0,0,0,1.79-.5,1.82,1.82,0,0,0,.63-1.52,1.73,1.73,0,0,0-.63-1.49,3,3,0,0,0-1.79-.46h-2.86Z" transform="translate(-6.66 -2.14)"/>
          <path class="cls-2" d="M171.55,236.92c0,.48,0,.92,0,1.34s0,.86,0,1.34a3.22,3.22,0,0,0,.81,2.16,2.86,2.86,0,0,0,2.18.82,3.76,3.76,0,0,0,1.3-.19,2.8,2.8,0,0,0,.87-.5,2.06,2.06,0,0,0,.53-.69,4.24,4.24,0,0,0,.28-.8.42.42,0,0,1,.16-.26.45.45,0,0,1,.26-.09h.73a.34.34,0,0,1,.25.11.32.32,0,0,1,.11.24,3.62,3.62,0,0,1-.28,1.16,3.72,3.72,0,0,1-.79,1.17,4.12,4.12,0,0,1-1.38.92,5.58,5.58,0,0,1-3.89,0,4.32,4.32,0,0,1-1.4-.9,4.16,4.16,0,0,1-.91-1.37,5.13,5.13,0,0,1-.35-1.74c0-1,0-1.89,0-2.85a5.12,5.12,0,0,1,.35-1.72,4.1,4.1,0,0,1,.91-1.38,4.32,4.32,0,0,1,1.4-.9,5.58,5.58,0,0,1,3.89,0,4.12,4.12,0,0,1,1.38.92,3.72,3.72,0,0,1,.79,1.17,3.62,3.62,0,0,1,.28,1.16.34.34,0,0,1-.11.24.34.34,0,0,1-.25.11h-.73a.45.45,0,0,1-.26-.09.42.42,0,0,1-.16-.26,4,4,0,0,0-.28-.8,2.06,2.06,0,0,0-.53-.69,2.62,2.62,0,0,0-.87-.5,3.76,3.76,0,0,0-1.3-.19,2.83,2.83,0,0,0-2.18.82A3.22,3.22,0,0,0,171.55,236.92Z" transform="translate(-6.66 -2.14)"/>
          <path class="cls-2" d="M183.47,238l5.46,5.2a.59.59,0,0,1,.13.17.35.35,0,0,1,0,.12.39.39,0,0,1-.1.25.35.35,0,0,1-.25.1h-1a.68.68,0,0,1-.37-.09,1.16,1.16,0,0,1-.21-.15l-4.53-4.32v4.13a.39.39,0,0,1-.13.3.38.38,0,0,1-.3.13h-.66a.44.44,0,0,1-.43-.43V233.09a.38.38,0,0,1,.13-.3.39.39,0,0,1,.3-.13h.66a.44.44,0,0,1,.43.43v3.73l4.27-3.92.21-.15a.7.7,0,0,1,.37-.09h.93a.35.35,0,0,1,.25.1.39.39,0,0,1,.1.25.35.35,0,0,1,0,.12.59.59,0,0,1-.13.17Z" transform="translate(-6.66 -2.14)"/>
          <path class="cls-2" d="M197.54,241.33H192l-.84,2.13a.88.88,0,0,1-.17.26.62.62,0,0,1-.45.14h-.59a.33.33,0,0,1-.25-.1.36.36,0,0,1-.11-.25.71.71,0,0,1,.07-.23l3.92-10.09a1.26,1.26,0,0,1,.24-.36.65.65,0,0,1,.48-.17h1a.65.65,0,0,1,.48.17,1.26,1.26,0,0,1,.24.36l3.9,10.09a.53.53,0,0,1,.07.23.36.36,0,0,1-.11.25.33.33,0,0,1-.25.1H199a.62.62,0,0,1-.45-.14.88.88,0,0,1-.17-.26Zm-5-1.44H197l-2.21-5.71Z" transform="translate(-6.66 -2.14)"/>
          <path class="cls-2" d="M208.82,232.66a.39.39,0,0,1,.3.13.38.38,0,0,1,.13.3v10.34a.44.44,0,0,1-.43.43h-.66a.38.38,0,0,1-.3-.13.39.39,0,0,1-.13-.3v-4.08H205l-2.32,4.08a2.94,2.94,0,0,1-.22.27.61.61,0,0,1-.47.16h-.69a.33.33,0,0,1-.25-.1.35.35,0,0,1-.1-.25.45.45,0,0,1,0-.18l2.41-4.21a3.46,3.46,0,0,1-1.65-1.08,3.09,3.09,0,0,1-.65-2.07,3.26,3.26,0,0,1,.31-1.5,2.93,2.93,0,0,1,.84-1,3.74,3.74,0,0,1,1.22-.59,5.53,5.53,0,0,1,1.49-.19Zm-1.09,1.44H205a3.21,3.21,0,0,0-1.78.42,1.63,1.63,0,0,0-.63,1.45,1.7,1.7,0,0,0,.63,1.48,3,3,0,0,0,1.78.46h2.71Z" transform="translate(-6.66 -2.14)"/>
        </g>
      </g>
    </g>
    <g>
      <g>
        <path class="cls-2" d="M100.21,84.29c2.47,0,4.45,3.29,4.41,7.27s-2.06,7.17-4.53,7.14-4.46-3.29-4.42-7.28S97.73,84.25,100.21,84.29Z" transform="translate(-6.66 -2.14)"/>
        <path class="cls-2" d="M43.18,60c.29.79,1.44,3,1.44,3l5.49-.62,1.2,3.08s-6.78,6.76-6.64,16A58.26,58.26,0,0,0,48,99.11l4.72.07c1.74,5.18,5,8.69,8.75,8.75,3.48,0,6.56-2.84,8.46-7.3l18.29-2.42c2,6.21,6.76,10.59,12.32,10.68s10.29-4.11,12.45-10.18l10.06-.3c1,.68,2.86,1.83,4.41,1.81,1.85,0,27.45-1.26,39.63-1.71,2.19,5.67,6.67,9.64,11.93,9.72,6,.09,11.16-4.9,13-11.87l5-.15a61.85,61.85,0,0,0,.08-8.16,18.43,18.43,0,0,1,.21-5.26s2.38-3.41,1.06-6-11.19-8-33-11.39-49.74-.76-57.47-.15c0,0-9.3-12.54-15.34-14.45l3.71-.07s35.12-.37,43.17,1,22.92,12,22.92,12-8.82-9.94-21.05-13.21-49.39-2.75-56.79-1.95-10.28,2.92-15,7.75a65.25,65.25,0,0,1-8.64,7.49l-7.41,1-1-2.64,7.81-.65s3.21-2,3.55-3l-20.58.42S42.9,59.19,43.18,60ZM194.5,78.85a43.09,43.09,0,0,1-5.74.31s1.48-3.68-1.53-5.36-28.67-7.75-28.67-7.75c12.59,1,29.94,6.72,34.71,8.7S196.75,78.59,194.5,78.85Zm-1.17,5c-.43,0-24.51,1.58-26.1,1.57s-4.85-.33-4.85-.33C163.9,85.12,195,83,195,83a6.59,6.59,0,0,0,0,2.52,39.09,39.09,0,0,1,.07,5.75s-.32-4.71-.5-5.2-.61-.32-1-.76S193.75,83.86,193.33,83.85Zm-22.76,15.6s4,4.61,9.32,3.66,5.42-6.59,5.42-6.59l3.76,0s-2.4,7.82-8.71,8.76C174.92,106.07,170.57,99.45,170.57,99.45ZM113.3,90.6s11.49-.15,13.44.05,3,4.26,5.85,4.3,60.3-3.82,60.3-3.82l-3.65,1.48s-52.29,4-56.33,4.21-4.11-1.75-5.35-3.74-13.42-1.53-13.42-1.53ZM112,71s12.19.61,18.42,3.07,22.44,8.47,22.44,8.47-5.69,1.93-9.61,1.87-7.7.2-10-1.65-5.31-6.7-8.06-7.6S112,71,112,71Zm-.7-3.64c22.7-2.64,36.93-.93,36.93-.93-10.58-.54-34.43,2.27-34.43,2.27Zm-6.9-1.56c-1.35.4-39.69-1.85-39.69-1.85,3.1-1.21,9.51-7.55,11.07-9.61s7.74-3.42,13.32-2.92S104.39,65.78,104.39,65.78ZM91.76,91.36c0-6.19,3.22-11.17,7.08-11.11s6.92,5.13,6.87,11.33-3.22,11.16-7.07,11.1S91.71,97.55,91.76,91.36ZM68.4,81.42a8,8,0,0,1,3.3,5.67c.18,3.58.78,6.75,1.06,6.76s14.43-1.53,14.43-1.53.34,2.37.57,3.27L70.92,97.82S71.73,84.08,68.4,81.42ZM54.81,90.8c0-6.2,2.58-11.18,5.64-11.13s5.49,5.1,5.44,11.29-2.58,11.18-5.64,11.13S54.75,97,54.81,90.8ZM53.18,67.46c2-1,45.28,1.3,45.28,1.3-3.16.9-41.09-.28-42.74-.17S53.2,71,53.2,71c4,.6,14.31.73,14.31.73a24.91,24.91,0,0,1-7.19.57c-1.19-.11-8.38,0-8.38,0A35.19,35.19,0,0,0,49.56,78c-1.29,3.79.47,18.25.47,18.25s-1.8-9.83-2.39-14.88S51.15,68.52,53.18,67.46Z" transform="translate(-6.66 -2.14)"/>
        <path class="cls-2" d="M61.53,83.69c2,0,3.53,3.28,3.5,7.26s-1.66,7.18-3.63,7.15-3.52-3.28-3.49-7.26S59.56,83.66,61.53,83.69Z" transform="translate(-6.66 -2.14)"/>
      </g>
      <path class="cls-2" d="M65.05,119s40,21.66,63.29-11l12.5-2.84S108.64,150.69,65.05,119Z" transform="translate(-6.66 -2.14)"/>
      <path class="cls-2" d="M91.49,152.68a75,75,0,0,0,54.29-23.19c.94-.94,1.87-1.91,2.76-2.9h-.09A75.18,75.18,0,0,0,160,108.53h-14.4A58.24,58.24,0,1,1,134.77,33.9l-12.23,6.78L163,50.06,150.91,10.34,144.46,24a75.25,75.25,0,1,0-53,128.68" transform="translate(-6.66 -2.14)"/>
    </g>
  </g>
</svg>
