<svg id="Слой_1" data-name="Слой 1" xmlns="http://www.w3.org/2000/svg" viewBox="0 0 399.62 150.54">
  <defs>
    <style>
      .cls-1 {
        fill: #20577d;
      }

      .cls-2 {
        fill: #231f20;
      }

      .cls-3 {
        fill: #f9c869;
      }
    </style>
  </defs>
  <title>logo</title>
  <g>
    <path class="cls-1" d="M75.42,2.23" transform="translate(-10.04 -1.88)"/>
    <path class="cls-1" d="M75.42,152.77" transform="translate(-10.04 -1.88)"/>
    <path class="cls-1" d="M75.42,152.77" transform="translate(-10.04 -1.88)"/>
    <g>
      <g>
        <path class="cls-2" d="M238.61,86.41V47A2,2,0,0,1,240.55,45h5.84A2,2,0,0,1,248.33,47V86.41h3.31a2,2,0,0,1,2,1.94v13a2,2,0,0,1-2,1.94h-5.47a2,2,0,0,1-1.94-1.94v-6h-33.7a2,2,0,0,1-1.94-1.94V47A2,2,0,0,1,210.53,45h5.83a1.84,1.84,0,0,1,1.37.58,1.88,1.88,0,0,1,.58,1.36V86.41Z" transform="translate(-10.04 -1.88)"/>
        <path class="cls-2" d="M285.63,45a2.24,2.24,0,0,1,1.72.61,5.14,5.14,0,0,1,1,1.84L306,93a1.57,1.57,0,0,1,.07.51,2,2,0,0,1-1.94,1.94H299a2.7,2.7,0,0,1-2-.61,3.61,3.61,0,0,1-.79-1.19l-3.1-8H270.29l-3.1,8a3.46,3.46,0,0,1-.79,1.19,2.67,2.67,0,0,1-2,.61H259.2a2,2,0,0,1-1.94-1.94,1.57,1.57,0,0,1,.07-.51L275,47.46a5.14,5.14,0,0,1,1-1.84,2.25,2.25,0,0,1,1.73-.61Zm4,31.61L281.67,56.1l-7.92,20.52Z" transform="translate(-10.04 -1.88)"/>
        <path class="cls-2" d="M333.79,45q8.71,0,13.54,4.1t4.82,12q0,7.92-4.82,12.09t-13.54,4.18H322.27V93.47a2,2,0,0,1-1.94,1.94H314.5a2,2,0,0,1-1.95-1.94V47a1.88,1.88,0,0,1,.58-1.36A1.84,1.84,0,0,1,314.5,45Zm-11.52,23.4h11.16A11.75,11.75,0,0,0,340,66.79q2.44-1.62,2.44-5.65T340,55.56A12.2,12.2,0,0,0,333.43,54H322.27Z" transform="translate(-10.04 -1.88)"/>
        <path class="cls-2" d="M383.62,70.71,397.3,47c.19-.24.51-.62,1-1.15a2.65,2.65,0,0,1,2.12-.79h4.9A2,2,0,0,1,407.23,47V93.47a2,2,0,0,1-1.94,1.94h-5.83a2,2,0,0,1-1.95-1.94V65.31l-9.36,16.2a6.07,6.07,0,0,1-1,1.19,2.33,2.33,0,0,1-1.66.61h-3.74a2.3,2.3,0,0,1-1.66-.61,6.15,6.15,0,0,1-1-1.19l-9.36-16.2V93.47a2,2,0,0,1-1.94,1.94H362a1.84,1.84,0,0,1-1.37-.58,1.82,1.82,0,0,1-.58-1.36V47A2,2,0,0,1,362,45h4.89a2.67,2.67,0,0,1,2.13.79c.45.53.78.91,1,1.15Z" transform="translate(-10.04 -1.88)"/>
      </g>
      <g>
        <path class="cls-2" d="M207.15,106a.52.52,0,0,1-.08-.24.33.33,0,0,1,.1-.24.36.36,0,0,1,.25-.11h.69a.67.67,0,0,1,.45.13,1,1,0,0,1,.22.27l2.88,5.55,2.9-5.55a1.24,1.24,0,0,1,.21-.27.7.7,0,0,1,.46-.13h.69a.36.36,0,0,1,.25.11.37.37,0,0,1,.1.24.52.52,0,0,1-.08.24l-3.84,7.36c-.2.38-.41.76-.63,1.15a6.34,6.34,0,0,1-.74,1,3.65,3.65,0,0,1-.91.76,2.31,2.31,0,0,1-1.15.29h-.83a.39.39,0,0,1-.3-.13.38.38,0,0,1-.13-.3v-.58a.41.41,0,0,1,.13-.3.43.43,0,0,1,.3-.13h.69a1,1,0,0,0,.59-.18,2.18,2.18,0,0,0,.51-.5,7.55,7.55,0,0,0,.47-.69l.45-.8Z" transform="translate(-10.04 -1.88)"/>
        <path class="cls-2" d="M222.68,112.17l3.24-6.26a1.38,1.38,0,0,1,.26-.35.64.64,0,0,1,.44-.16h.61a.42.42,0,0,1,.3.13.41.41,0,0,1,.13.3v10.34a.44.44,0,0,1-.43.43h-.66a.39.39,0,0,1-.3-.13.38.38,0,0,1-.13-.3v-7.58l-2.5,4.81a1.28,1.28,0,0,1-.27.38.52.52,0,0,1-.38.13h-.61a.52.52,0,0,1-.38-.13,1.5,1.5,0,0,1-.28-.38l-2.49-4.81v7.58a.38.38,0,0,1-.13.3.39.39,0,0,1-.3.13h-.66a.44.44,0,0,1-.43-.43V105.83a.41.41,0,0,1,.13-.3.42.42,0,0,1,.3-.13h.61a.64.64,0,0,1,.44.16,1.38,1.38,0,0,1,.26.35Z" transform="translate(-10.04 -1.88)"/>
        <path class="cls-2" d="M238.65,105.4a.46.46,0,0,1,.31.13.44.44,0,0,1,.12.3v10.34a.41.41,0,0,1-.12.3.42.42,0,0,1-.31.13H238a.42.42,0,0,1-.31-.13.41.41,0,0,1-.12-.3v-4.51h-5.64v4.51a.44.44,0,0,1-.43.43h-.66a.44.44,0,0,1-.3-.12.42.42,0,0,1-.13-.31V105.83a.44.44,0,0,1,.43-.43h.66a.42.42,0,0,1,.3.13.41.41,0,0,1,.13.3v4.39h5.64v-4.39a.44.44,0,0,1,.12-.3.46.46,0,0,1,.31-.13Z" transform="translate(-10.04 -1.88)"/>
        <path class="cls-2" d="M248.67,114.07h-5.55l-.83,2.13a1.06,1.06,0,0,1-.18.27.62.62,0,0,1-.45.13h-.59a.34.34,0,0,1-.35-.35.61.61,0,0,1,.06-.22l3.92-10.1a1.22,1.22,0,0,1,.24-.35.62.62,0,0,1,.48-.18h1a.62.62,0,0,1,.48.18,1.22,1.22,0,0,1,.24.35L251,116a.49.49,0,0,1,.07.22.34.34,0,0,1-.11.25.31.31,0,0,1-.24.1h-.59a.59.59,0,0,1-.45-.13.71.71,0,0,1-.18-.27Zm-5-1.44h4.43l-2.21-5.71Z" transform="translate(-10.04 -1.88)"/>
        <path class="cls-2" d="M260,105.4a.42.42,0,0,1,.3.13.41.41,0,0,1,.13.3v10.34a.44.44,0,0,1-.43.43h-.66a.39.39,0,0,1-.3-.13.38.38,0,0,1-.13-.3v-4.08h-2.75l-2.32,4.08a1.18,1.18,0,0,1-.22.27.61.61,0,0,1-.47.16h-.69a.31.31,0,0,1-.24-.1.34.34,0,0,1-.11-.25.49.49,0,0,1,.05-.18l2.41-4.2a3.55,3.55,0,0,1-1.65-1.09,3.11,3.11,0,0,1-.65-2.07,3.46,3.46,0,0,1,.31-1.5,2.81,2.81,0,0,1,.84-1,3.53,3.53,0,0,1,1.23-.6,5.82,5.82,0,0,1,1.48-.19Zm-1.09,1.44h-2.7a3.14,3.14,0,0,0-1.79.43,1.6,1.6,0,0,0-.63,1.44,1.69,1.69,0,0,0,.63,1.48,3,3,0,0,0,1.79.46h2.7Z" transform="translate(-10.04 -1.88)"/>
        <path class="cls-2" d="M273.87,114.07h-5.55l-.84,2.13a.81.81,0,0,1-.17.27.62.62,0,0,1-.45.13h-.59a.34.34,0,0,1-.35-.35A.61.61,0,0,1,266,116l3.92-10.1a1.22,1.22,0,0,1,.24-.35.62.62,0,0,1,.48-.18h1a.62.62,0,0,1,.48.18,1.22,1.22,0,0,1,.24.35l3.9,10.1a.49.49,0,0,1,.07.22.34.34,0,0,1-.11.25.33.33,0,0,1-.24.1h-.6a.58.58,0,0,1-.44-.13.71.71,0,0,1-.18-.27Zm-5-1.44h4.43l-2.21-5.71Z" transform="translate(-10.04 -1.88)"/>
        <path class="cls-2" d="M278.35,116.6a.42.42,0,0,1-.31-.13.41.41,0,0,1-.12-.3V105.83a.44.44,0,0,1,.12-.3.46.46,0,0,1,.31-.13h4.29a4.15,4.15,0,0,1,1.69.31,3.17,3.17,0,0,1,1.07.77,2.69,2.69,0,0,1,.57,1,3.18,3.18,0,0,1,.17.94,2.45,2.45,0,0,1-.16.93,2.49,2.49,0,0,1-.37.67,1.94,1.94,0,0,1-.43.43l-.3.23a3.94,3.94,0,0,1,1.06,1.09,2.85,2.85,0,0,1,.46,1.59,3.28,3.28,0,0,1-.89,2.23,3.23,3.23,0,0,1-1.11.74,3.83,3.83,0,0,1-1.53.28Zm1.09-9.76v3.23h3a2.55,2.55,0,0,0,1.6-.41,1.6,1.6,0,0,0,0-2.4,2.55,2.55,0,0,0-1.6-.42Zm0,4.67v3.65h3.27a3,3,0,0,0,.94-.14,2,2,0,0,0,.68-.4,1.66,1.66,0,0,0,.41-.58,1.74,1.74,0,0,0,.14-.69,2,2,0,0,0-.13-.68,1.71,1.71,0,0,0-.4-.6,1.84,1.84,0,0,0-.67-.4,2.81,2.81,0,0,0-1-.16Z" transform="translate(-10.04 -1.88)"/>
        <path class="cls-2" d="M295.32,105.4a.44.44,0,0,1,.44.43v.58a.44.44,0,0,1-.44.43h-3v9.33a.44.44,0,0,1-.43.43h-.66a.41.41,0,0,1-.3-.13.42.42,0,0,1-.13-.3v-9.33h-3a.44.44,0,0,1-.43-.43v-.58a.41.41,0,0,1,.13-.3.42.42,0,0,1,.3-.13Z" transform="translate(-10.04 -1.88)"/>
        <path class="cls-2" d="M296.81,109.58a5.22,5.22,0,0,1,.31-1.69,4.08,4.08,0,0,1,.86-1.38,4.12,4.12,0,0,1,1.38-.92,5.17,5.17,0,0,1,3.74,0,4.33,4.33,0,0,1,1.38.92,4.05,4.05,0,0,1,.85,1.38,5,5,0,0,1,.31,1.69q.06,1.42,0,2.85a5.45,5.45,0,0,1-.32,1.68,4.22,4.22,0,0,1-.86,1.39,4.05,4.05,0,0,1-1.37.93,5.44,5.44,0,0,1-3.73,0,4.11,4.11,0,0,1-1.36-.93,4.06,4.06,0,0,1-.86-1.39,5.17,5.17,0,0,1-.33-1.68Q296.77,111,296.81,109.58Zm7.31.08a4.19,4.19,0,0,0-.24-1.31,2.58,2.58,0,0,0-.6-.93,2.42,2.42,0,0,0-.91-.55,3.55,3.55,0,0,0-2.29,0,2.47,2.47,0,0,0-1.51,1.48,3.69,3.69,0,0,0-.24,1.31c0,.48,0,.93,0,1.34s0,.87,0,1.35a3.69,3.69,0,0,0,.24,1.31,2.64,2.64,0,0,0,.61.93,2.6,2.6,0,0,0,.9.55,3.73,3.73,0,0,0,2.29,0,2.55,2.55,0,0,0,.91-.55,2.76,2.76,0,0,0,.6-.93,4.19,4.19,0,0,0,.24-1.31c0-.48,0-.93,0-1.35S304.14,110.14,304.12,109.66Z" transform="translate(-10.04 -1.88)"/>
        <path class="cls-2" d="M313,112.17l3.23-6.26a1.38,1.38,0,0,1,.26-.35.64.64,0,0,1,.44-.16h.61a.42.42,0,0,1,.3.13.41.41,0,0,1,.13.3v10.34a.44.44,0,0,1-.43.43h-.66a.41.41,0,0,1-.3-.13.38.38,0,0,1-.13-.3v-7.58l-2.49,4.81a1.5,1.5,0,0,1-.28.38.52.52,0,0,1-.38.13h-.61a.52.52,0,0,1-.38-.13,1.28,1.28,0,0,1-.27-.38l-2.5-4.81v7.58a.38.38,0,0,1-.13.3.39.39,0,0,1-.3.13h-.66a.44.44,0,0,1-.43-.43V105.83a.41.41,0,0,1,.13-.3.42.42,0,0,1,.3-.13H309a.64.64,0,0,1,.44.16,1.38,1.38,0,0,1,.26.35Z" transform="translate(-10.04 -1.88)"/>
        <path class="cls-2" d="M327.52,114.07H322l-.83,2.13a.81.81,0,0,1-.17.27.62.62,0,0,1-.45.13h-.59a.33.33,0,0,1-.25-.1.34.34,0,0,1-.11-.25.49.49,0,0,1,.07-.22l3.92-10.1a1.22,1.22,0,0,1,.24-.35.59.59,0,0,1,.48-.18h1a.62.62,0,0,1,.48.18,1.82,1.82,0,0,1,.24.35l3.9,10.1a.67.67,0,0,1,.07.22.34.34,0,0,1-.11.25.33.33,0,0,1-.25.1H329a.62.62,0,0,1-.45-.13.81.81,0,0,1-.17-.27Zm-5-1.44H327l-2.21-5.71Z" transform="translate(-10.04 -1.88)"/>
        <path class="cls-2" d="M332.48,109.66c0,.48,0,.93,0,1.34s0,.87,0,1.35a3.25,3.25,0,0,0,.8,2.15,2.84,2.84,0,0,0,2.19.82,3.74,3.74,0,0,0,1.29-.19,2.57,2.57,0,0,0,.88-.5,2,2,0,0,0,.52-.69,3.56,3.56,0,0,0,.28-.79.43.43,0,0,1,.42-.36h.74a.34.34,0,0,1,.24.11.34.34,0,0,1,.11.25,3.34,3.34,0,0,1-.27,1.15,3.82,3.82,0,0,1-.8,1.17,4.07,4.07,0,0,1-1.37.92,5,5,0,0,1-2,.37,4.94,4.94,0,0,1-1.86-.33,4.16,4.16,0,0,1-1.4-.9,3.89,3.89,0,0,1-.9-1.37,4.85,4.85,0,0,1-.35-1.73q-.06-1.43,0-2.85a4.89,4.89,0,0,1,.35-1.73,4,4,0,0,1,.9-1.38,4.32,4.32,0,0,1,1.4-.9,4.94,4.94,0,0,1,1.86-.33,5.16,5.16,0,0,1,2,.37,4.22,4.22,0,0,1,1.37.92,3.86,3.86,0,0,1,.8,1.18,3.29,3.29,0,0,1,.27,1.15.36.36,0,0,1-.11.25.33.33,0,0,1-.24.1h-.74a.45.45,0,0,1-.26-.09.43.43,0,0,1-.16-.26,3.39,3.39,0,0,0-.28-.79,2.07,2.07,0,0,0-.52-.7,2.56,2.56,0,0,0-.88-.49,3.72,3.72,0,0,0-1.29-.2,2.84,2.84,0,0,0-2.19.83A3.23,3.23,0,0,0,332.48,109.66Z" transform="translate(-10.04 -1.88)"/>
        <path class="cls-2" d="M349,105.4a.46.46,0,0,1,.31.13.44.44,0,0,1,.12.3v.58a.41.41,0,0,1-.12.3.42.42,0,0,1-.31.13h-3v9.33a.44.44,0,0,1-.43.43h-.66a.44.44,0,0,1-.43-.43v-9.33h-3a.42.42,0,0,1-.31-.13.41.41,0,0,1-.12-.3v-.58a.44.44,0,0,1,.12-.3.46.46,0,0,1,.31-.13Z" transform="translate(-10.04 -1.88)"/>
        <path class="cls-2" d="M358,115.16a.44.44,0,0,1,.44.43v.58a.44.44,0,0,1-.44.43h-6.46a.44.44,0,0,1-.43-.43V105.83a.41.41,0,0,1,.13-.3.42.42,0,0,1,.3-.13h6.34a.44.44,0,0,1,.43.43v.58a.42.42,0,0,1-.13.3.41.41,0,0,1-.3.13h-5.25v3.38h4.89a.44.44,0,0,1,.44.43v.58a.43.43,0,0,1-.13.3.42.42,0,0,1-.31.13h-4.89v3.5Z" transform="translate(-10.04 -1.88)"/>
        <path class="cls-2" d="M365.08,105.4a5.4,5.4,0,0,1,1.48.2,3.56,3.56,0,0,1,1.23.62,3.1,3.1,0,0,1,.84,1,3.91,3.91,0,0,1,0,3,3.21,3.21,0,0,1-.84,1.08,3.43,3.43,0,0,1-1.23.64,5,5,0,0,1-1.48.21h-2.94v3.92a.38.38,0,0,1-.13.3.39.39,0,0,1-.3.13h-.66a.44.44,0,0,1-.43-.43V105.83a.41.41,0,0,1,.13-.3.42.42,0,0,1,.3-.13Zm-2.94,5.41H365a2.78,2.78,0,0,0,1.79-.5,1.81,1.81,0,0,0,.63-1.52,1.71,1.71,0,0,0-.63-1.48,3,3,0,0,0-1.79-.47h-2.86Z" transform="translate(-10.04 -1.88)"/>
        <path class="cls-2" d="M372,109.66c0,.48,0,.93,0,1.34s0,.87,0,1.35a3.26,3.26,0,0,0,.81,2.15,2.84,2.84,0,0,0,2.19.82,3.74,3.74,0,0,0,1.29-.19,2.62,2.62,0,0,0,.87-.5,2.06,2.06,0,0,0,.53-.69,4.15,4.15,0,0,0,.28-.79.41.41,0,0,1,.16-.27.45.45,0,0,1,.26-.09h.73a.38.38,0,0,1,.36.36,3.67,3.67,0,0,1-1.07,2.32,4.17,4.17,0,0,1-1.37.92,5,5,0,0,1-2,.37,4.9,4.9,0,0,1-1.86-.33,4.16,4.16,0,0,1-1.4-.9,4.06,4.06,0,0,1-.91-1.37,5.08,5.08,0,0,1-.35-1.73q0-1.43,0-2.85a5.12,5.12,0,0,1,.35-1.73,4.2,4.2,0,0,1,.91-1.38,4.32,4.32,0,0,1,1.4-.9,4.9,4.9,0,0,1,1.86-.33,5.16,5.16,0,0,1,2,.37,4.33,4.33,0,0,1,1.37.92,3.65,3.65,0,0,1,.79,1.18,3.56,3.56,0,0,1,.28,1.15.36.36,0,0,1-.11.25.33.33,0,0,1-.25.1h-.73a.45.45,0,0,1-.26-.09.39.39,0,0,1-.16-.26,3.92,3.92,0,0,0-.28-.79,2.1,2.1,0,0,0-.53-.7,2.6,2.6,0,0,0-.87-.49,3.72,3.72,0,0,0-1.29-.2,2.84,2.84,0,0,0-2.19.83A3.24,3.24,0,0,0,372,109.66Z" transform="translate(-10.04 -1.88)"/>
        <path class="cls-2" d="M383.88,110.76l5.46,5.2a.77.77,0,0,1,.13.17.35.35,0,0,1,0,.12.37.37,0,0,1-.1.25.35.35,0,0,1-.25.1h-1a.68.68,0,0,1-.37-.09.63.63,0,0,1-.21-.15L383.05,112v4.13a.44.44,0,0,1-.43.43H382a.39.39,0,0,1-.3-.13.38.38,0,0,1-.13-.3V105.83a.41.41,0,0,1,.13-.3.43.43,0,0,1,.3-.13h.66a.42.42,0,0,1,.3.13.41.41,0,0,1,.13.3v3.73l4.27-3.92.21-.15a.7.7,0,0,1,.37-.09h.93a.36.36,0,0,1,.25.11.37.37,0,0,1,.1.24.35.35,0,0,1,0,.13.76.76,0,0,1-.13.16Z" transform="translate(-10.04 -1.88)"/>
        <path class="cls-2" d="M398,114.07H392.4l-.84,2.13a.81.81,0,0,1-.17.27.62.62,0,0,1-.45.13h-.59a.34.34,0,0,1-.35-.35.61.61,0,0,1,.06-.22l3.92-10.1a1.22,1.22,0,0,1,.24-.35.62.62,0,0,1,.48-.18h1a.62.62,0,0,1,.48.18,1.22,1.22,0,0,1,.24.35l3.9,10.1a.49.49,0,0,1,.07.22.34.34,0,0,1-.11.25.33.33,0,0,1-.24.1h-.6a.58.58,0,0,1-.44-.13.71.71,0,0,1-.18-.27Zm-5-1.44h4.43l-2.21-5.71Z" transform="translate(-10.04 -1.88)"/>
        <path class="cls-2" d="M409.23,105.4a.43.43,0,0,1,.3.13.41.41,0,0,1,.13.3v10.34a.38.38,0,0,1-.13.3.39.39,0,0,1-.3.13h-.66a.44.44,0,0,1-.43-.43v-4.08h-2.75l-2.32,4.08a1.54,1.54,0,0,1-.22.27.61.61,0,0,1-.47.16h-.69a.34.34,0,0,1-.35-.35.49.49,0,0,1,.05-.18l2.41-4.2a3.55,3.55,0,0,1-1.65-1.09,3.06,3.06,0,0,1-.65-2.07,3.32,3.32,0,0,1,.31-1.5,2.81,2.81,0,0,1,.84-1,3.53,3.53,0,0,1,1.23-.6,5.82,5.82,0,0,1,1.48-.19Zm-1.09,1.44h-2.71a3.12,3.12,0,0,0-1.78.43,1.6,1.6,0,0,0-.63,1.44,1.69,1.69,0,0,0,.63,1.48,3,3,0,0,0,1.78.46h2.71Z" transform="translate(-10.04 -1.88)"/>
      </g>
    </g>
  </g>
  <g>
    <path class="cls-2" d="M94,84c2.47,0,4.45,3.29,4.42,7.27s-2.07,7.18-4.54,7.14-4.46-3.29-4.42-7.28S91.55,84,94,84Z" transform="translate(-10.04 -1.88)"/>
    <path class="cls-2" d="M37,59.73c.28.79,1.43,3,1.43,3l5.49-.63,1.2,3.08s-6.78,6.76-6.64,16a58.54,58.54,0,0,0,3.35,17.65l4.71.07c1.74,5.17,5,8.69,8.76,8.74,3.47.06,6.56-2.84,8.45-7.3L82.05,98c2,6.2,6.76,10.59,12.32,10.67s10.3-4.11,12.45-10.18l10.06-.3c1,.68,2.86,1.83,4.41,1.81,1.85,0,27.45-1.26,39.63-1.71,2.19,5.68,6.67,9.64,11.93,9.72,6,.09,11.16-4.9,13-11.87l5-.15a62.46,62.46,0,0,0,.07-8.16,18.43,18.43,0,0,1,.21-5.26s2.38-3.41,1.06-6-11.19-8-33-11.39-49.73-.76-57.47-.15c0,0-9.3-12.54-15.34-14.45l3.71-.07s35.12-.37,43.18,1,22.91,12,22.91,12-8.82-9.93-21.05-13.21-49.39-2.75-56.79-2-10.28,2.93-15,7.75a65.25,65.25,0,0,1-8.64,7.49l-7.4,1-1-2.64,7.81-.66s3.21-2,3.55-3l-20.58.42S36.72,58.94,37,59.73ZM188.32,78.59a43,43,0,0,1-5.73.31s1.47-3.68-1.54-5.36-28.67-7.75-28.67-7.75c12.6,1,29.94,6.72,34.71,8.7S190.57,78.33,188.32,78.59Zm-1.17,5c-.42,0-24.51,1.59-26.09,1.57s-4.86-.33-4.86-.33c1.52,0,32.57-2.07,32.57-2.07a6.54,6.54,0,0,0,0,2.51,39.23,39.23,0,0,1,.07,5.76s-.32-4.72-.5-5.21-.61-.32-1-.76S187.58,83.6,187.15,83.59Zm-22.76,15.6s4,4.61,9.32,3.66,5.43-6.59,5.43-6.59h3.75s-2.4,7.81-8.71,8.75C168.74,105.82,164.39,99.19,164.39,99.19Zm-57.27-8.84s11.49-.16,13.45,0,3,4.26,5.84,4.3,60.3-3.82,60.3-3.82l-3.65,1.48s-52.29,4-56.33,4.21-4.11-1.75-5.34-3.74S108,91.29,108,91.29Zm-1.31-19.63s12.19.62,18.42,3.07,22.44,8.48,22.44,8.48-5.69,1.92-9.61,1.86-7.7.21-10-1.65-5.31-6.7-8.06-7.59S105.81,70.72,105.81,70.72Zm-.7-3.64c22.7-2.63,36.93-.93,36.93-.93-10.58-.54-34.43,2.27-34.43,2.27Zm-6.9-1.55c-1.35.39-39.68-1.85-39.68-1.85,3.09-1.21,9.51-7.56,11.06-9.62s7.74-3.42,13.33-2.92S98.21,65.53,98.21,65.53ZM85.58,91.1c.06-6.19,3.22-11.16,7.08-11.1s6.93,5.12,6.87,11.32-3.22,11.16-7.07,11.1S85.53,97.3,85.58,91.1ZM62.22,81.16a8,8,0,0,1,3.3,5.67c.19,3.58.78,6.76,1.06,6.76S81,92.06,81,92.06s.34,2.37.57,3.27L64.74,97.56S65.55,83.82,62.22,81.16ZM48.63,90.54c0-6.19,2.58-11.18,5.64-11.13s5.49,5.1,5.44,11.3-2.58,11.17-5.64,11.13S48.57,96.73,48.63,90.54ZM47,67.21c2-1.06,45.28,1.29,45.28,1.29-3.16.91-41.09-.27-42.74-.16S47,70.74,47,70.74c4,.6,14.31.73,14.31.73a25.08,25.08,0,0,1-7.18.58c-1.2-.12-8.39,0-8.39,0a35.19,35.19,0,0,0-2.38,5.68c-1.29,3.79.47,18.25.47,18.25s-1.8-9.83-2.39-14.88S45,68.27,47,67.21Z" transform="translate(-10.04 -1.88)"/>
    <path class="cls-2" d="M55.35,83.44c2,0,3.53,3.27,3.5,7.26s-1.66,7.17-3.62,7.14-3.53-3.27-3.5-7.25S53.38,83.41,55.35,83.44Z" transform="translate(-10.04 -1.88)"/>
  </g>
  <path class="cls-3" d="M58.87,118.73s39.95,21.66,63.29-11l12.5-2.84S102.46,150.43,58.87,118.73Z" transform="translate(-10.04 -1.88)"/>
  <path class="cls-1" d="M85.32,152.43a75,75,0,0,0,54.28-23.2c.94-.94,1.87-1.91,2.76-2.9h-.09a75,75,0,0,0,11.58-18.06h-14.4a58.23,58.23,0,1,1-10.86-74.62l-12.23,6.77,40.49,9.38L144.73,10.08l-6.45,13.66a75.25,75.25,0,1,0-53,128.69" transform="translate(-10.04 -1.88)"/>
</svg>
