<svg width="274" height="129" viewBox="0 0 274 129" fill="none" xmlns="http://www.w3.org/2000/svg">
<g opacity="0.2" filter="url(#filter0_f)">
<rect x="34.2884" y="34.9244" width="205.551" height="59.679" rx="20" fill="#FFE34F"/>
</g>
<rect x="10.1108" y="15.9146" width="245.778" height="68.1425" rx="12.3428" fill="#FFD737"/>
<path d="M50.2054 50.5258H48.8054V56.4858H46.3854V42.1458H48.8054V48.4458H50.2454L54.8854 42.1458H57.4854L52.1654 49.3058L57.7054 56.4858H54.7854L50.2054 50.5258ZM64.4016 56.3658C64.175 56.9925 63.9283 57.5458 63.6616 58.0258C63.4083 58.5058 63.1083 58.9058 62.7616 59.2258C62.4283 59.5592 62.035 59.8058 61.5816 59.9658C61.1416 60.1392 60.6216 60.2258 60.0216 60.2258C59.3683 60.2258 58.8083 60.1192 58.3416 59.9058V57.8258C58.5283 57.9725 58.7616 58.0858 59.0416 58.1658C59.3216 58.2458 59.6283 58.2858 59.9616 58.2858C60.415 58.2858 60.7883 58.1858 61.0816 57.9858C61.375 57.7992 61.6416 57.5125 61.8816 57.1258L57.7016 46.1058H60.2016L63.1016 54.1658L65.9816 46.1058H68.1416L64.4016 56.3658ZM69.7196 46.1058H78.5396V56.4858H76.2196V47.9858H72.0396V56.4858H69.7196V46.1058ZM83.4454 53.3458L88.2454 46.1058H90.5254V56.4858H88.2254V49.2858L83.4654 56.4858H81.1454V46.1058H83.4454V53.3458ZM97.7776 47.9858V56.4858H95.4576V47.9858H92.3176V46.1058H100.978V47.9858H97.7776ZM111.107 52.9058C111.107 53.5058 110.994 54.0325 110.767 54.4858C110.554 54.9392 110.254 55.3125 109.867 55.6058C109.48 55.8992 109.02 56.1192 108.487 56.2658C107.954 56.4125 107.367 56.4858 106.727 56.4858H102.727V46.1058H105.047V49.4658H106.787C108.147 49.4658 109.207 49.7458 109.967 50.3058C110.727 50.8658 111.107 51.7325 111.107 52.9058ZM105.047 51.3058V54.6658H106.547C107.187 54.6658 107.707 54.5392 108.107 54.2858C108.507 54.0192 108.707 53.5858 108.707 52.9858C108.707 52.3858 108.527 51.9592 108.167 51.7058C107.807 51.4392 107.287 51.3058 106.607 51.3058H105.047ZM122.175 56.6858C121.335 56.6858 120.582 56.5658 119.915 56.3258C119.249 56.0725 118.682 55.7192 118.215 55.2658C117.749 54.7992 117.389 54.2325 117.135 53.5658C116.882 52.8992 116.755 52.1392 116.755 51.2858C116.755 50.4458 116.882 49.6925 117.135 49.0258C117.389 48.3592 117.749 47.7992 118.215 47.3458C118.682 46.8792 119.255 46.5258 119.935 46.2858C120.615 46.0325 121.375 45.9058 122.215 45.9058C122.935 45.9058 123.562 45.9858 124.095 46.1458C124.642 46.3058 125.075 46.5058 125.395 46.7458V48.6658C124.982 48.3992 124.529 48.1925 124.035 48.0458C123.555 47.8992 122.995 47.8258 122.355 47.8258C120.209 47.8258 119.135 48.9792 119.135 51.2858C119.135 53.5925 120.189 54.7458 122.295 54.7458C122.975 54.7458 123.555 54.6725 124.035 54.5258C124.529 54.3658 124.982 54.1658 125.395 53.9258V55.8458C125.049 56.0725 124.615 56.2725 124.095 56.4458C123.575 56.6058 122.935 56.6858 122.175 56.6858ZM132.032 56.6858C131.299 56.6858 130.619 56.5658 129.992 56.3258C129.365 56.0858 128.819 55.7392 128.352 55.2858C127.899 54.8192 127.539 54.2525 127.272 53.5858C127.019 52.9192 126.892 52.1525 126.892 51.2858C126.892 50.4192 127.019 49.6525 127.272 48.9858C127.539 48.3192 127.899 47.7592 128.352 47.3058C128.819 46.8392 129.365 46.4925 129.992 46.2658C130.619 46.0258 131.299 45.9058 132.032 45.9058C132.765 45.9058 133.445 46.0258 134.072 46.2658C134.699 46.4925 135.245 46.8392 135.712 47.3058C136.179 47.7592 136.545 48.3192 136.812 48.9858C137.079 49.6525 137.212 50.4192 137.212 51.2858C137.212 52.1525 137.079 52.9192 136.812 53.5858C136.545 54.2525 136.179 54.8192 135.712 55.2858C135.245 55.7392 134.699 56.0858 134.072 56.3258C133.445 56.5658 132.765 56.6858 132.032 56.6858ZM132.032 54.7458C132.832 54.7458 133.492 54.4658 134.012 53.9058C134.545 53.3458 134.812 52.4725 134.812 51.2858C134.812 50.1125 134.545 49.2458 134.012 48.6858C133.492 48.1125 132.832 47.8258 132.032 47.8258C131.245 47.8258 130.585 48.1125 130.052 48.6858C129.532 49.2458 129.272 50.1125 129.272 51.2858C129.272 52.4725 129.532 53.3458 130.052 53.9058C130.585 54.4658 131.245 54.7458 132.032 54.7458ZM148.328 56.6858C147.488 56.6858 146.734 56.5658 146.068 56.3258C145.401 56.0725 144.834 55.7192 144.368 55.2658C143.901 54.7992 143.541 54.2325 143.288 53.5658C143.034 52.8992 142.908 52.1392 142.908 51.2858C142.908 50.4458 143.034 49.6925 143.288 49.0258C143.541 48.3592 143.901 47.7992 144.368 47.3458C144.834 46.8792 145.408 46.5258 146.088 46.2858C146.768 46.0325 147.528 45.9058 148.368 45.9058C149.088 45.9058 149.714 45.9858 150.248 46.1458C150.794 46.3058 151.228 46.5058 151.548 46.7458V48.6658C151.134 48.3992 150.681 48.1925 150.188 48.0458C149.708 47.8992 149.148 47.8258 148.508 47.8258C146.361 47.8258 145.288 48.9792 145.288 51.2858C145.288 53.5925 146.341 54.7458 148.448 54.7458C149.128 54.7458 149.708 54.6725 150.188 54.5258C150.681 54.3658 151.134 54.1658 151.548 53.9258V55.8458C151.201 56.0725 150.768 56.2725 150.248 56.4458C149.728 56.6058 149.088 56.6858 148.328 56.6858ZM156.904 52.2658H156.004V56.4858H153.684V46.1058H156.004V50.3858H156.984L160.284 46.1058H162.724L158.804 51.1058L162.884 56.4858H160.144L156.904 52.2658ZM166.727 53.3458L171.527 46.1058H173.807V56.4858H171.507V49.2858L166.747 56.4858H164.427V46.1058H166.727V53.3458ZM176.139 54.6058C176.446 54.3392 176.686 53.9725 176.859 53.5058C177.046 53.0392 177.192 52.4592 177.299 51.7658C177.406 51.0592 177.486 50.2392 177.539 49.3058C177.592 48.3725 177.639 47.3058 177.679 46.1058H185.279V54.6058H186.839V59.4458H184.819L184.639 56.4858H177.479L177.299 59.4458H175.259V54.6058H176.139ZM182.959 54.6058V47.9858H179.679C179.612 49.6258 179.499 50.9858 179.339 52.0658C179.192 53.1325 178.946 53.9792 178.599 54.6058H182.959ZM191.807 52.2658H190.907V56.4858H188.587V46.1058H190.907V50.3858H191.887L195.187 46.1058H197.627L193.707 51.1058L197.787 56.4858H195.047L191.807 52.2658ZM203.341 56.6858C202.607 56.6858 201.927 56.5658 201.301 56.3258C200.674 56.0858 200.127 55.7392 199.661 55.2858C199.207 54.8192 198.847 54.2525 198.581 53.5858C198.327 52.9192 198.201 52.1525 198.201 51.2858C198.201 50.4192 198.327 49.6525 198.581 48.9858C198.847 48.3192 199.207 47.7592 199.661 47.3058C200.127 46.8392 200.674 46.4925 201.301 46.2658C201.927 46.0258 202.607 45.9058 203.341 45.9058C204.074 45.9058 204.754 46.0258 205.381 46.2658C206.007 46.4925 206.554 46.8392 207.021 47.3058C207.487 47.7592 207.854 48.3192 208.121 48.9858C208.387 49.6525 208.521 50.4192 208.521 51.2858C208.521 52.1525 208.387 52.9192 208.121 53.5858C207.854 54.2525 207.487 54.8192 207.021 55.2858C206.554 55.7392 206.007 56.0858 205.381 56.3258C204.754 56.5658 204.074 56.6858 203.341 56.6858ZM203.341 54.7458C204.141 54.7458 204.801 54.4658 205.321 53.9058C205.854 53.3458 206.121 52.4725 206.121 51.2858C206.121 50.1125 205.854 49.2458 205.321 48.6858C204.801 48.1125 204.141 47.8258 203.341 47.8258C202.554 47.8258 201.894 48.1125 201.361 48.6858C200.841 49.2458 200.581 50.1125 200.581 51.2858C200.581 52.4725 200.841 53.3458 201.361 53.9058C201.894 54.4658 202.554 54.7458 203.341 54.7458ZM215.142 44.8658C214.582 44.8658 214.095 44.7925 213.682 44.6458C213.282 44.4992 212.942 44.2992 212.662 44.0458C212.395 43.7792 212.195 43.4725 212.062 43.1258C211.928 42.7658 211.862 42.3858 211.862 41.9858H213.902C213.902 42.4525 214.008 42.7925 214.222 43.0058C214.448 43.2058 214.755 43.3058 215.142 43.3058C215.528 43.3058 215.828 43.2058 216.042 43.0058C216.255 42.7925 216.362 42.4525 216.362 41.9858H218.422C218.422 42.3858 218.355 42.7658 218.222 43.1258C218.088 43.4725 217.882 43.7792 217.602 44.0458C217.335 44.2992 216.995 44.4992 216.582 44.6458C216.168 44.7925 215.688 44.8658 215.142 44.8658ZM212.762 53.3458L217.562 46.1058H219.842V56.4858H217.542V49.2858L212.782 56.4858H210.462V46.1058H212.762V53.3458Z" fill="black"/>
<defs>
<filter id="filter0_f" x="0.288422" y="0.924377" width="273.551" height="127.679" filterUnits="userSpaceOnUse" color-interpolation-filters="sRGB">
<feFlood flood-opacity="0" result="BackgroundImageFix"/>
<feBlend mode="normal" in="SourceGraphic" in2="BackgroundImageFix" result="shape"/>
<feGaussianBlur stdDeviation="17" result="effect1_foregroundBlur"/>
</filter>
</defs>
</svg>
