<svg width="152" height="45" viewBox="0 0 152 45" fill="none" xmlns="http://www.w3.org/2000/svg">
<path d="M145.831 0.972717H6.40897C5.13104 0.972525 3.90536 1.47989 3.00146 2.38325C2.09755 3.28661 1.58945 4.51199 1.58887 5.78991V39.0292C1.58887 41.6903 3.74712 43.8471 6.4097 43.8471H145.831C146.464 43.8475 147.091 43.7232 147.675 43.4813C148.26 43.2394 148.792 42.8847 149.24 42.4374C149.687 41.99 150.043 41.4589 150.285 40.8742C150.528 40.2896 150.653 39.6629 150.653 39.0299V5.79064C150.653 3.13024 148.495 0.973444 145.831 0.973444V0.972717Z" fill="black" stroke="#3F3F3F" stroke-width="1.45337"/>
<path fill-rule="evenodd" clip-rule="evenodd" d="M120.701 33.1179H122.78V19.1844H120.701V33.1179ZM139.432 24.2037L137.049 30.2446H136.977L134.503 24.2037H132.263L135.973 32.6463L133.857 37.3428H136.026L141.745 24.2037H139.432ZM127.638 31.5352C126.957 31.5352 126.007 31.1936 126.007 30.3514C126.007 29.2759 127.189 28.8639 128.211 28.8639C129.125 28.8639 129.556 29.0615 130.111 29.3297C129.95 30.621 128.838 31.5352 127.637 31.5352H127.638ZM127.888 23.8992C126.383 23.8992 124.823 24.5619 124.178 26.0313L126.024 26.8016C126.419 26.0313 127.154 25.7806 127.924 25.7806C129 25.7806 130.094 26.4266 130.112 27.5733V27.7164C129.735 27.5014 128.929 27.1787 127.943 27.1787C125.952 27.1787 123.927 28.2724 123.927 30.3158C123.927 32.1805 125.558 33.381 127.387 33.381C128.785 33.381 129.556 32.7531 130.039 32.0191H130.112V33.0946H132.119V27.7535C132.119 25.2791 130.273 23.8992 127.888 23.8992ZM115.037 25.8997H112.079V21.1232H115.037C116.591 21.1232 117.474 22.4116 117.474 23.5111C117.474 24.5917 116.591 25.8997 115.037 25.8997ZM114.982 19.1852H109.999V33.1179H112.079V27.8378H114.982C117.288 27.8378 119.553 26.1693 119.553 23.5104C119.553 20.8522 117.288 19.1837 114.982 19.1837V19.1852ZM87.81 31.5366C86.3734 31.5366 85.1707 30.334 85.1707 28.6815C85.1707 27.0123 86.3741 25.7915 87.81 25.7915C89.2285 25.7915 90.3418 27.0123 90.3418 28.6815C90.3418 30.334 89.2285 31.5366 87.81 31.5366ZM90.1979 24.9834H90.126C89.6594 24.4267 88.762 23.9232 87.6298 23.9232C85.2608 23.9232 83.088 26.0066 83.088 28.6815C83.088 31.3397 85.2608 33.4042 87.6298 33.4042C88.762 33.4042 89.6594 32.9021 90.126 32.3265H90.1979V33.0096C90.1979 34.8227 89.2285 35.7921 87.6662 35.7921C86.3915 35.7921 85.6009 34.8765 85.2783 34.104L83.4645 34.8583C83.9855 36.1155 85.3684 37.6597 87.6662 37.6597C90.1078 37.6597 92.173 36.2238 92.173 32.7219V24.2124H90.1979V24.9841V24.9834ZM93.609 33.1172H95.6924V19.1844H93.609V33.1179V33.1172ZM98.7626 28.5202C98.7096 26.6889 100.181 25.7551 101.241 25.7551C102.067 25.7551 102.767 26.1679 103.001 26.7609L98.7626 28.5202ZM105.227 26.9403C104.832 25.8808 103.629 23.9232 101.169 23.9232C98.7277 23.9232 96.6981 25.8452 96.6981 28.664C96.6981 31.3208 98.7096 33.4042 101.402 33.4042C103.575 33.4042 104.832 32.0744 105.352 31.3034L103.737 30.2257C103.198 31.0163 102.462 31.5366 101.402 31.5366C100.343 31.5366 99.5896 31.0519 99.1034 30.1L105.442 27.4788L105.227 26.9403ZM54.7299 25.378V27.3887H59.542C59.3981 28.5202 59.0217 29.3457 58.4469 29.9212C57.7463 30.621 56.6505 31.3927 54.7299 31.3927C51.7679 31.3927 49.4512 29.0049 49.4512 26.0429C49.4512 23.0795 51.7679 20.6916 54.7299 20.6916C56.3286 20.6916 57.4949 21.3202 58.3575 22.1282L59.776 20.7098C58.5726 19.5601 56.9739 18.6808 54.7299 18.6808C50.6713 18.6808 47.2596 21.9844 47.2596 26.0422C47.2596 30.1 50.6713 33.4035 54.7299 33.4035C56.9208 33.4035 58.5726 32.6855 59.8654 31.3397C61.1937 30.0106 61.6072 28.1437 61.6072 26.6344C61.6072 26.1679 61.5709 25.737 61.499 25.378H54.7299ZM67.0777 31.5366C65.6411 31.5366 64.4013 30.3521 64.4013 28.664C64.4013 26.9578 65.6411 25.7915 67.0777 25.7915C68.5136 25.7915 69.7519 26.9578 69.7519 28.664C69.7519 30.3514 68.5136 31.5366 67.0777 31.5366ZM67.0777 23.9232C64.4558 23.9232 62.3194 25.9172 62.3194 28.664C62.3194 31.3927 64.4558 33.4042 67.0777 33.4042C69.6996 33.4042 71.8353 31.3927 71.8353 28.664C71.8353 25.9172 69.6989 23.9232 67.0777 23.9232ZM77.4577 31.5366C76.0217 31.5366 74.782 30.3521 74.782 28.664C74.782 26.9578 76.0217 25.7915 77.4577 25.7915C78.8943 25.7915 80.1326 26.9578 80.1326 28.664C80.1326 30.3514 78.8943 31.5366 77.4584 31.5366H77.4577ZM77.4577 23.9232C74.8358 23.9232 72.6993 25.9172 72.6993 28.664C72.6993 31.3927 74.8358 33.4042 77.4577 33.4042C80.0788 33.4042 82.216 31.3927 82.216 28.664C82.216 25.9172 80.0788 23.9232 77.4577 23.9232Z" fill="white"/>
<path fill-rule="evenodd" clip-rule="evenodd" d="M9.23428 8.68036C8.91018 9.02335 8.71834 9.55601 8.71834 10.2464V34.8955C8.71834 35.5859 8.91018 36.1178 9.23428 36.4608L9.3164 36.5407L23.1249 22.7337V22.4074L9.3164 8.59897L9.23428 8.68036Z" fill="#00D3FF"/>
<path fill-rule="evenodd" clip-rule="evenodd" d="M27.7267 27.3378L23.1239 22.7335V22.4073L27.7275 17.8037L27.8321 17.8633L33.2844 20.9612C34.8417 21.847 34.8417 23.2938 33.2844 24.1804L27.8321 27.2782L27.7267 27.3364V27.3378Z" fill="#FFCF00"/>
<path fill-rule="evenodd" clip-rule="evenodd" d="M27.8315 27.2785L23.1247 22.5703L9.23413 36.4609C9.7479 37.0044 10.5952 37.0713 11.5508 36.5284L27.8315 27.2785Z" fill="#F3314A"/>
<path fill-rule="evenodd" clip-rule="evenodd" d="M27.8316 17.8629L11.5517 8.61215C10.5961 8.07005 9.74875 8.1369 9.23499 8.68046L23.1256 22.571L27.8323 17.8629H27.8316Z" fill="#00F076"/>
<path fill-rule="evenodd" clip-rule="evenodd" d="M54.1172 7.87085H51.717V8.22257C51.717 8.80828 51.6639 9.60981 51.5593 10.6257C51.4546 11.6416 51.249 12.4773 50.9416 13.1321H54.1172V7.87085ZM50.8377 7.05769H55.0285V13.1321H55.649V15.5519H54.8359V13.9438H50.2832V15.5505H49.4715V13.1306H50.0071C50.5615 12.2949 50.8377 10.6054 50.8377 8.0627V7.05769ZM57.093 10.6046C57.093 11.4345 57.3168 12.0885 57.7622 12.5667C58.2099 13.0434 58.7687 13.2825 59.4423 13.2825C60.1291 13.2825 60.6922 13.0412 61.1355 12.5594C61.5795 12.0762 61.8004 11.3916 61.8004 10.5065C61.8004 9.94554 61.706 9.45575 61.517 9.03863C61.3429 8.63842 61.0531 8.29934 60.685 8.06488C60.3172 7.83455 59.8908 7.71521 59.4569 7.72115C58.8109 7.72115 58.2564 7.94207 57.792 8.38462C57.3262 8.82935 57.0937 9.56766 57.0937 10.6046H57.093ZM56.1548 10.5901C56.1548 9.44776 56.4608 8.55321 57.0741 7.90573C57.6881 7.25971 58.4809 6.93561 59.4518 6.93561C60.0876 6.93561 60.6617 7.08821 61.1711 7.39124C61.6773 7.6904 62.0836 8.13261 62.3389 8.66221C62.6063 9.20577 62.74 9.82127 62.74 10.5102C62.74 11.2092 62.5991 11.8342 62.3178 12.385C62.0359 12.9358 61.6369 13.3537 61.1195 13.6371C60.6073 13.919 60.0314 14.0651 59.4467 14.0615C58.7985 14.0615 58.2201 13.906 57.7099 13.592C57.2057 13.2874 56.8018 12.8418 56.548 12.3102C56.2875 11.7746 56.1532 11.1864 56.1555 10.5908L56.1548 10.5901ZM68.5303 11.5297L69.4415 11.7601C69.2504 12.5086 68.9067 13.079 68.4096 13.4729C67.914 13.866 67.308 14.0622 66.5907 14.0622C65.8473 14.0622 65.2442 13.9111 64.7791 13.6095C64.314 13.3057 63.9601 12.8683 63.7182 12.2964C63.4731 11.7116 63.3492 11.0832 63.3541 10.4491C63.3541 9.73262 63.49 9.10622 63.7654 8.5721C64.0216 8.05682 64.4293 7.63231 64.9339 7.35563C65.4462 7.07756 66.021 6.93499 66.6038 6.94142C67.2927 6.94142 67.8719 7.11655 68.3421 7.46609C68.8129 7.81708 69.14 8.30977 69.3238 8.94707L68.4278 9.15781C68.2679 8.6564 68.0354 8.2916 67.7324 8.06342C67.4272 7.83524 67.0464 7.72043 66.5857 7.72043C66.0566 7.72043 65.6141 7.84687 65.2595 8.10121C64.9026 8.3541 64.6534 8.69491 64.5088 9.1222C64.3652 9.54834 64.2923 9.99509 64.293 10.4448C64.293 11.0305 64.3787 11.5421 64.5488 11.9788C64.7203 12.4163 64.9848 12.7418 65.3452 12.9584C65.6979 13.172 66.1028 13.2841 66.5152 13.2825C67.0253 13.2825 67.4577 13.1357 67.8116 12.8414C68.1655 12.5463 68.4045 12.1103 68.5303 11.5297ZM71.6979 13.9445V7.87085H69.4284V7.05769H74.8873V7.87085H72.6091V13.9445H71.6979Z" fill="white"/>
<path fill-rule="evenodd" clip-rule="evenodd" d="M74.8285 7.05839H75.75L77.9954 11.2768L79.9597 7.05839H80.8658L78.2825 12.4141C77.9598 13.0833 77.6946 13.5223 77.4875 13.7286C77.2818 13.9357 76.9861 14.0382 76.6009 14.0382C76.3662 14.0382 76.0777 13.9844 75.7354 13.8747V13.0935C75.9803 13.2338 76.2383 13.3042 76.5108 13.3042C76.7332 13.3042 76.925 13.2338 77.0863 13.0906C77.2484 12.9489 77.4257 12.6233 77.6197 12.1168L74.8293 7.05766L74.8285 7.05839ZM81.3476 7.05839H86.7636V13.9452H85.848V7.87082H82.2582V13.9452H81.3476V7.05839ZM87.983 13.9445V7.05766H88.8942V9.88519H92.4732V7.05839H93.3852V13.9445H92.4732V10.6984H88.8942V13.9445H87.983ZM95.2658 10.6046C95.2658 11.4345 95.4896 12.0885 95.9351 12.5667C96.3827 13.0434 96.9416 13.2824 97.6152 13.2824C98.3019 13.2824 98.8651 13.0412 99.3091 12.5594C99.7524 12.0761 99.9733 11.3916 99.9733 10.5065C99.9733 9.94551 99.8788 9.45572 99.6899 9.0386C99.5159 8.63848 99.2264 8.29942 98.8586 8.06485C98.4904 7.83425 98.0634 7.7149 97.629 7.72112C96.9837 7.72112 96.43 7.94204 95.9649 8.38459C95.4998 8.82932 95.2665 9.56763 95.2665 10.6046H95.2658ZM94.3277 10.5901C94.3277 9.44773 94.6336 8.55318 95.2469 7.9057C95.861 7.25968 96.6538 6.93558 97.6246 6.93558C98.2605 6.93558 98.8346 7.08818 99.344 7.39121C99.8501 7.69037 100.256 8.13258 100.512 8.66218C100.779 9.20574 100.913 9.82124 100.913 10.5101C100.913 11.2092 100.772 11.8342 100.491 12.385C100.209 12.9358 99.8098 13.3537 99.2924 13.6371C98.7804 13.9189 98.2047 14.065 97.6203 14.0614C96.9713 14.0614 96.3922 13.9059 95.882 13.592C95.3781 13.2873 94.9744 12.8416 94.7208 12.3101C94.4603 11.7745 94.3261 11.1864 94.3284 10.5908L94.3277 10.5901ZM105.037 13.132H106.752C107.045 13.132 107.253 13.1211 107.372 13.0986C107.581 13.0615 107.757 12.9983 107.898 12.9111C108.038 12.8232 108.155 12.6953 108.245 12.5289C108.337 12.3603 108.381 12.167 108.381 11.9475C108.381 11.6917 108.316 11.4679 108.185 11.279C108.052 11.0883 107.859 10.9475 107.637 10.8793C107.404 10.803 107.069 10.7645 106.63 10.7645H105.037V13.132ZM105.037 9.95132H106.527C106.931 9.95132 107.22 9.92516 107.395 9.87138C107.627 9.80308 107.802 9.68826 107.919 9.52839C108.037 9.36925 108.095 9.16868 108.095 8.92742C108.095 8.69851 108.04 8.49722 107.931 8.32427C107.823 8.15189 107.657 8.02457 107.462 7.96602C107.258 7.90279 106.908 7.87155 106.413 7.87155H105.037V9.95132ZM104.126 13.9452V7.05839H106.71C107.236 7.05839 107.657 7.12742 107.975 7.26695C108.293 7.40647 108.542 7.62084 108.722 7.91079C108.903 8.20001 108.992 8.50376 108.992 8.81914C108.992 9.11418 108.912 9.39177 108.753 9.6512C108.593 9.91063 108.352 10.1214 108.03 10.2805C108.446 10.4026 108.766 10.6104 108.989 10.9047C109.215 11.1998 109.326 11.5471 109.326 11.9475C109.326 12.2716 109.257 12.571 109.122 12.8472C108.986 13.1248 108.817 13.3391 108.616 13.4895C108.417 13.64 108.164 13.7533 107.862 13.8296C107.561 13.9067 107.191 13.9452 106.752 13.9452H104.126Z" fill="white"/>
</svg>
